<svg
  viewBox="0 0 128 128"
  xmlns:xlink="http://www.w3.org/1999/xlink"
  xmlns="http://www.w3.org/2000/svg">
  <defs>
    <linearGradient id="grad1">
      <stop style="stop-color:#e64e43" offset="0"/>
      <stop style="stop-color:#ffffff" offset="1"/>
    </linearGradient>
    <linearGradient
      xlink:href="#grad1"
      id="grad2"
      x1="426.2049"
      y1="31.484819"
      x2="420.92838"
      y2="565.22394"
      gradientUnits="userSpaceOnUse"
      gradientTransform="matrix(0.23910467,0,0,0.23910467,-36.645975,-7.2152083)"/>
  </defs>
  <path d="M 64.000284,0.067586 A 63.932116,63.932116 0 0 1 127.93241,63.999703 63.932116,63.932116 0 1 1 64.000284,0.067586 Z"
    style="fill:url(#grad2);stroke:#f4501d;stroke-width:0.135172"/>
  <g transform="matrix(0.23910467,0,0,0.23910467,-36.645972,-7.2152084)">
    <path d="m 449.9171,219.3242 c -4.6011,5.297 -39.0311,15.0017 -64.9593,23.3667 11.4418,-10.5409 42.2417,-31.586 46.0256,-30.464 3.2218,-0.7584 12.5517,4.7085 18.9337,7.0973 z"
      style="fill:#ffffff;fill-rule:evenodd;stroke:#ffffff;stroke-width:0.2835"/>
    <path d="m 531.251,151.6665 c -7.2906,-3.6274 -13.3815,-8.4846 -10.236,-14.6809 1.9592,-3.8593 10.6462,-6.1804 23.2124,-1.5687 -1.7648,8.0211 -7.9974,10.7358 -12.9764,16.2496 z"
      style="fill:#ffffff;fill-rule:evenodd;stroke:#ffffff;stroke-width:0.2835"/>
    <path d="M 575.8204,104.1588 C 567.3897,98.75 557.6194,96.6973 552.0868,91.9529 544.2892,86.663 535.7367,87.0607 526.9692,89.0885 512.6031,92.5262 493.4391,106.8502 485.3738,97.5641 469.8764,77.1097 459.2546,61.9602 426.2691,46.7156 393.2835,31.471 362.1758,27.1481 282.2634,36.6415 c -6.5526,0.7784 -27.3794,7.0217 -33.2589,10.0702 86.9058,14.5694 126.3697,40.1281 138.4387,55.8429 12.0691,15.7147 17.4819,52.1835 -12.1051,85.3851 -29.587,33.2016 -99.3075,79.7603 -163.1297,116.1968 23.5237,-9.2982 48.3473,-20.6876 68.0071,-31.9676 19.6599,-11.2799 38.0749,-17.2183 42.8913,-8.9375 8.0924,17.2644 -42.5817,63.8378 -69.5793,98.6023 66.4066,-58.3475 89.8432,-87.5168 131.4303,-119.1428 14.9772,-13.1189 41.2223,-30.8814 46.0256,-30.464 3.9255,-0.4543 6.9955,5.3678 18.9337,7.0973 22.9706,3.3285 72.0787,6.999 93.7192,26.0771 21.6406,19.078 78.7015,96.1746 96.4945,121.3158 -5.371,-48.0112 -16.0982,-91.2754 -31.4921,-133.808 -15.3939,-42.5326 -38.8109,-65.6453 -77.3877,-81.2426 -9.3202,-4.0933 -12.7978,-9.6456 -10.236,-14.6809 2.5619,-5.0353 14.1381,-5.4165 23.2124,-1.5687 6.1292,-1.8775 10.7859,-5.4429 12.4033,-12.4925 3.8653,-9.992 12.7146,-16.248 19.1897,-18.7656 z"
      style="fill:#2a2925;fill-rule:evenodd;stroke:#2a2925;stroke-width:0.2835"/>
  </g>
</svg>