<!-- Free icons by Font Awesome, https://fontawesome.com, License: CC BY 4.0, https://fontawesome.com/license/free -->
<svg xmlns="http://www.w3.org/2000/svg">
  <symbol id="bars-v5" viewBox="0 60 448 392">
    <path d="M16 132h416c8.837 0 16-7.163 16-16V76c0-8.837-7.163-16-16-16H16C7.163 60 0 67.163 0 76v40c0 8.837 7.163 16 16 16zm0 160h416c8.837 0 16-7.163 16-16v-40c0-8.837-7.163-16-16-16H16c-8.837 0-16 7.163-16 16v40c0 8.837 7.163 16 16 16zm0 160h416c8.837 0 16-7.163 16-16v-40c0-8.837-7.163-16-16-16H16c-8.837 0-16 7.163-16 16v40c0 8.837 7.163 16 16 16z"/>
  </symbol>

  <symbol id="phone-v4" viewBox="0 0 1408 1408">
    <path d="M1408 1112q0 27-10 70.5t-21 68.5q-21 50-122 106q-94 51-186 51q-27 0-53-3.5t-57.5-12.5t-47-14.5T856 1357t-49-18q-98-35-175-83q-127-79-264-216T152 776q-48-77-83-175q-3-9-18-49t-20.5-55.5t-14.5-47T3.5 392T0 339q0-92 51-186Q107 52 157 31q25-11 68.5-21T296 0q14 0 21 3q18 6 53 76q11 19 30 54t35 63.5t31 53.5q3 4 17.5 25t21.5 35.5t7 28.5q0 20-28.5 50t-62 55t-62 53t-28.5 46q0 9 5 22.5t8.5 20.5t14 24t11.5 19q76 137 174 235t235 174q2 1 19 11.5t24 14t20.5 8.5t22.5 5q18 0 46-28.5t53-62t55-62t50-28.5q14 0 28.5 7t35.5 21.5t25 17.5q25 15 53.5 31t63.5 35t54 30q70 35 76 53q3 7 3 21z"/>
  </symbol>

  <symbol id="whatsapp-v4" viewBox="0 32 448 448">
    <path d="M380.9 97.1C339 55.1 283.2 32 223.9 32c-122.4 0-222 99.6-222 222 0 39.1 10.2 77.3 29.6 111L0 480l117.7-30.9c32.4 17.7 68.9 27 106.1 27h.1c122.3 0 224.1-99.6 224.1-222 0-59.3-25.2-115-67.1-157zm-157 341.6c-33.2 0-65.7-8.9-94-25.7l-6.7-4-69.8 18.3L72 359.2l-4.4-7 c-18.5-29.4-28.2-63.3-28.2-98.2 0-101.7 82.8-184.5 184.6-184.5 49.3 0 95.6 19.2 130.4 54.1 34.8 34.9 56.2 81.2 56.1 130.5 0 101.8-84.9 184.6-186.6 184.6zm101.2-138.2c-5.5-2.8-32.8-16.2-37.9-18-5.1-1.9-8.8-2.8-12.5 2.8-3.7 5.6-14.3 18-17.6 21.8-3.2 3.7-6.5 4.2-12 1.4-32.6-16.3-54-29.1-75.5-66-5.7-9.8 5.7-9.1 16.3-30.3 1.8-3.7.9-6.9-.5-9.7-1.4-2.8-12.5-30.1-17.1-41.2-4.5-10.8-9.1-9.3-12.5-9.5-3.2-.2-6.9-.2-10.6-.2-3.7 0-9.7 1.4-14.8 6.9-5.1 5.6-19.4 19-19.4 46.3 0 27.3 19.9 53.7 22.6 57.4 2.8 3.7 39.1 59.7 94.8 83.8 35.2 15.2 49 16.5 66.6 13.9 10.7-1.6 32.8-13.4 37.4-26.4 4.6-13 4.6-24.1 3.2-26.4-1.3-2.5-5-3.9-10.5-6.6z"/>
  </symbol>

  <symbol id="caret-down-v5" viewBox="11.296875 192 297.30859375 168.65234375">
    <path d="M31.3 192h257.3c17.8 0 26.7 21.5 14.1 34.1L174.1 354.8c-7.8 7.8-20.5 7.8-28.3 0L17.2 226.1C4.6 213.5 13.5 192 31.3 192z"/>
  </symbol>

  <symbol id="envelope-v4" viewBox="0 0 1792 1408">
    <path d="M1664 1248V480q-32 36-69 66q-268 206-426 338q-51 43-83 67t-86.5 48.5T897 1024h-2q-48 0-102.5-24.5T706 951t-83-67Q465 752 197 546q-37-30-69-66v768q0 13 9.5 22.5t22.5 9.5h1472q13 0 22.5-9.5t9.5-22.5zm0-1051v-24.5l-.5-13l-3-12.5l-5.5-9l-9-7.5l-14-2.5H160q-13 0-22.5 9.5T128 160q0 168 147 284q193 152 401 317q6 5 35 29.5t46 37.5t44.5 31.5T852 887t43 9h2q20 0 43-9t50.5-27.5T1035 828t46-37.5t35-29.5q208-165 401-317q54-43 100.5-115.5T1664 197zm128-37v1088q0 66-47 113t-113 47H160q-66 0-113-47T0 1248V160Q0 94 47 47T160 0h1472q66 0 113 47t47 113z"/>
  </symbol>

  <symbol id="map-marker-v4" viewBox="0 0 1024 1536">
    <path d="M768 512q0-106-75-181t-181-75t-181 75t-75 181t75 181t181 75t181-75t75-181zm256 0q0 109-33 179l-364 774q-16 33-47.5 52t-67.5 19t-67.5-19t-46.5-52L33 691Q0 621 0 512q0-212 150-362T512 0t362 150t150 362z"/>
  </symbol>

  <symbol id="times-v5" viewBox="0 80 352 352">
    <path d="M242.72 256l100.07-100.07c12.28-12.28 12.28-32.19 0-44.48l-22.24-22.24c-12.28-12.28-32.19-12.28-44.48 0L176 189.28 75.93 89.21c-12.28-12.28-32.19-12.28-44.48 0L9.21 111.45c-12.28 12.28-12.28 32.19 0 44.48L109.28 256 9.21 356.07c-12.28 12.28-12.28 32.19 0 44.48l22.24 22.24c12.28 12.28 32.2 12.28 44.48 0L176 322.72l100.07 100.07c12.28 12.28 32.2 12.28 44.48 0l22.24-22.24c12.28-12.28 12.28-32.19 0-44.48L242.72 256z"/>
  </symbol>

  <symbol id="chevron-down-v5" viewBox="5.65625 123.49609375 436.6875 265.0078125">
    <path d="M207.029 381.476L12.686 187.132c-9.373-9.373-9.373-24.569 0-33.941l22.667-22.667c9.357-9.357 24.522-9.375 33.901-.04L224 284.505l154.745-154.021c9.379-9.335 24.544-9.317 33.901.04l22.667 22.667c9.373 9.373 9.373 24.569 0 33.941L240.971 381.476c-9.373 9.372-24.569 9.372-33.942 0z"/>
  </symbol>

  <symbol id="check-v5" viewBox="0 65.09765625 512 381.8046875">
    <path d="M173.898 439.404l-166.4-166.4c-9.997-9.997-9.997-26.206 0-36.204l36.203-36.204c9.997-9.998 26.207-9.998 36.204 0L192 312.69 432.095 72.596c9.997-9.997 26.207-9.997 36.204 0l36.203 36.204c9.997 9.997 9.997 26.206 0 36.204l-294.4 294.401c-9.998 9.997-26.207 9.997-36.204-.001z"/>
  </symbol>
</svg>